<svg width="15" height="16" viewBox="0 0 15 16" fill="none" xmlns="http://www.w3.org/2000/svg">
<path d="M7.94174 10.9415C7.82454 11.0587 7.6656 11.1245 7.49987 11.1245C7.33414 11.1245 7.1752 11.0587 7.05799 10.9415L3.30799 7.19152C3.19414 7.07364 3.13115 6.91577 3.13257 6.75189C3.134 6.58802 3.19973 6.43126 3.31561 6.31538C3.43149 6.1995 3.58824 6.13377 3.75212 6.13235C3.91599 6.13093 4.07387 6.19392 4.19174 6.30777L7.49987 9.6159L10.808 6.30777C10.9259 6.19392 11.0837 6.13093 11.2476 6.13235C11.4115 6.13377 11.5682 6.1995 11.6841 6.31538C11.8 6.43126 11.8657 6.58802 11.8672 6.75189C11.8686 6.91577 11.8056 7.07364 11.6917 7.19152L7.94174 10.9415Z" fill="white"/>
</svg>
