<svg width="20" height="20" viewBox="0 0 20 20" fill="none" xmlns="http://www.w3.org/2000/svg">
<g clip-path="url(#clip0_349_14443)">
<path d="M7.02539 14.3498C6.85963 14.3498 6.70066 14.2839 6.58345 14.1667C6.46624 14.0495 6.40039 13.8905 6.40039 13.7248V6.22476C6.40045 6.11827 6.42772 6.01356 6.47961 5.92056C6.5315 5.82756 6.60629 5.74937 6.69689 5.69339C6.78749 5.63742 6.89088 5.60552 6.99727 5.60073C7.10366 5.59594 7.2095 5.61841 7.30477 5.66601L14.8048 9.41601C14.9084 9.46798 14.9956 9.54776 15.0565 9.64644C15.1175 9.74511 15.1497 9.8588 15.1497 9.97476C15.1497 10.0907 15.1175 10.2044 15.0565 10.3031C14.9956 10.4018 14.9084 10.4816 14.8048 10.5335L7.30477 14.2835C7.21804 14.327 7.12239 14.3496 7.02539 14.3498ZM7.65039 7.23601V12.7135L13.1279 9.97476L7.65039 7.23601Z" fill="#F5F5F5"/>
<path d="M10 1.42857C11.6953 1.42857 13.3525 1.93128 14.762 2.87312C16.1716 3.81496 17.2702 5.15363 17.919 6.71985C18.5677 8.28608 18.7375 10.0095 18.4067 11.6722C18.076 13.3349 17.2597 14.8622 16.0609 16.0609C14.8622 17.2596 13.3349 18.076 11.6722 18.4067C10.0095 18.7375 8.28608 18.5677 6.71986 17.919C5.15364 17.2702 3.81496 16.1716 2.87312 14.762C1.93128 13.3525 1.42858 11.6953 1.42858 10C1.42858 7.72671 2.33163 5.54654 3.93909 3.93908C5.54654 2.33163 7.72672 1.42857 10 1.42857ZM10 0C8.02219 0 6.08879 0.58649 4.4443 1.6853C2.79981 2.78412 1.51809 4.3459 0.761209 6.17316C0.00433283 8.00043 -0.1937 10.0111 0.192152 11.9509C0.578004 13.8907 1.53041 15.6725 2.92894 17.0711C4.32746 18.4696 6.10929 19.422 8.0491 19.8078C9.98891 20.1937 11.9996 19.9957 13.8268 19.2388C15.6541 18.4819 17.2159 17.2002 18.3147 15.5557C19.4135 13.9112 20 11.9778 20 10C20 7.34783 18.9464 4.80429 17.0711 2.92893C15.1957 1.05357 12.6522 0 10 0Z" fill="#F5F5F5"/>
</g>
<defs>
<clipPath id="clip0_349_14443">
<rect width="20" height="20" fill="white"/>
</clipPath>
</defs>
</svg>
